<?xml version="1.0" encoding="UTF-8"?>
<svg version="1.1" xmlns="http://www.w3.org/2000/svg" width="300" height="420">
<path d="M0 0 C1.16293579 0.26647339 1.16293579 0.26647339 2.34936523 0.53833008 C9.39377488 2.17052936 16.41762092 3.89075719 23.4375 5.625 C25.03489014 6.01764038 25.03489014 6.01764038 26.66455078 6.41821289 C27.65310059 6.66563232 28.64165039 6.91305176 29.66015625 7.16796875 C30.54582275 7.38864014 31.43148926 7.60931152 32.34399414 7.83666992 C34.375 8.4375 34.375 8.4375 35.375 9.4375 C35.47158904 11.34844939 35.49687192 13.26301866 35.49525452 15.17640686 C35.49731651 17.04641106 35.49731651 17.04641106 35.49942017 18.95419312 C35.49588056 20.34844994 35.49224574 21.74270653 35.48852539 23.13696289 C35.48824353 24.59521991 35.48840124 26.05347707 35.4889679 27.51173401 C35.4892559 31.48263485 35.48335877 35.45350575 35.47639394 39.42439961 C35.47016081 43.56975101 35.46955663 47.71510302 35.46836853 51.86045837 C35.46525509 59.71569327 35.45704154 67.57091432 35.44701904 75.42614311 C35.43585829 84.36674399 35.43034755 93.30734552 35.42532361 102.24795163 C35.41485893 120.64447561 35.39725925 139.0409867 35.375 157.4375 C39.005 157.4375 42.635 157.4375 46.375 157.4375 C46.375 160.0775 46.375 162.7175 46.375 165.4375 C-52.955 165.4375 -152.285 165.4375 -254.625 165.4375 C-254.625 162.7975 -254.625 160.1575 -254.625 157.4375 C-251.325 157.4375 -248.025 157.4375 -244.625 157.4375 C-244.625 148.8575 -244.625 140.2775 -244.625 131.4375 C-219.21323529 119.4375 -219.21323529 119.4375 -215.625 119.4375 C-215.625 131.9775 -215.625 144.5175 -215.625 157.4375 C-211.335 157.4375 -207.045 157.4375 -202.625 157.4375 C-202.625 142.9175 -202.625 128.3975 -202.625 113.4375 C-192.72893797 108.81933772 -182.84676958 104.29270685 -172.8125 100 C-171.54877542 99.453898 -170.28510341 98.90767431 -169.02148438 98.36132812 C-167.23774414 97.5965918 -167.23774414 97.5965918 -165.41796875 96.81640625 C-164.3508667 96.3582251 -163.28376465 95.90004395 -162.18432617 95.42797852 C-159.625 94.4375 -159.625 94.4375 -157.625 94.4375 C-157.625 115.2275 -157.625 136.0175 -157.625 157.4375 C-105.815 157.4375 -54.005 157.4375 -0.625 157.4375 C3.61166096 113.5006581 3.61166096 113.5006581 -12.625 98.4375 C-16.25 94.3125 -16.25 94.3125 -17.890625 92.421875 C-21.42000803 88.38375208 -25.03143155 84.41843487 -28.625 80.4375 C-30.31278298 78.56275472 -32.00029269 76.68776338 -33.6875 74.8125 C-34.44160156 73.97460938 -35.19570312 73.13671875 -35.97265625 72.2734375 C-36.51792969 71.66757813 -37.06320313 71.06171875 -37.625 70.4375 C-36.635 68.4575 -36.635 68.4575 -35.625 66.4375 C-32.625 66.4375 -32.625 66.4375 -31.046875 67.6875 C-30.49515625 68.265 -29.9434375 68.8425 -29.375 69.4375 C-28.44880859 70.40429688 -28.44880859 70.40429688 -27.50390625 71.390625 C-25.14829379 73.95682236 -22.84912889 76.56525167 -20.57421875 79.203125 C-18.29479306 81.81601376 -15.96287647 84.37680021 -13.625 86.9375 C-10.18828889 90.70646113 -6.76608621 94.48122944 -3.46569824 98.37062073 C-1.64606083 100.47209008 -1.64606083 100.47209008 0.42712402 102.3846283 C4.38952887 106.29800454 6.86148957 109.19212117 7.28320312 114.86547852 C7.2819547 116.84957204 7.23781987 118.83398979 7.15625 120.81640625 C7.14493042 121.86908188 7.13361084 122.92175751 7.12194824 124.0063324 C7.07747845 127.33947626 6.97716918 130.66817642 6.875 134 C6.83483511 136.27142186 6.79833965 138.54291175 6.765625 140.81445312 C6.67784169 146.35696221 6.54430569 151.89691364 6.375 157.4375 C7.695 157.4375 9.015 157.4375 10.375 157.4375 C10.375 156.85312164 10.375 156.26874329 10.375 155.66665649 C10.375 108.92360433 10.375 62.18055216 10.375 15.4375 C14.335 16.4275 14.335 16.4275 18.375 17.4375 C18.375 63.6375 18.375 109.8375 18.375 157.4375 C20.025 157.4375 21.675 157.4375 23.375 157.4375 C23.375 111.8975 23.375 66.3575 23.375 19.4375 C25.685 19.7675 27.995 20.0975 30.375 20.4375 C30.375 65.6475 30.375 110.8575 30.375 157.4375 C31.365 157.4375 32.355 157.4375 33.375 157.4375 C32.88 85.1675 32.88 85.1675 32.375 11.4375 C19.505 8.1375 6.635 4.8375 -6.625 1.4375 C-6.625 29.8175 -6.625 58.1975 -6.625 87.4375 C-19.22749683 76.63535986 -19.22749683 76.63535986 -20.20263672 71.24365234 C-20.48732358 67.19176844 -20.56718904 63.18474514 -20.5625 59.125 C-20.57672112 57.62718581 -20.59212172 56.12938239 -20.60864258 54.6315918 C-20.63545373 51.50115622 -20.63870611 48.37172877 -20.62695312 45.24121094 C-20.61514693 41.24155677 -20.6763957 37.24674786 -20.75718689 33.24803162 C-20.8090444 30.15757504 -20.81468825 27.06827914 -20.80740356 23.97744751 C-20.81077522 22.50383288 -20.8299598 21.03016153 -20.86569214 19.55697632 C-21.11351931 8.08010495 -21.11351931 8.08010495 -17.38916016 3.97021484 C-14.86666476 2.1785486 -12.42580469 0.74224445 -9.625 -0.5625 C-6.42907878 -2.16046061 -3.34274648 -0.78570213 0 0 Z " fill="#006577" transform="translate(270.625,151.5625)"/>
<path d="M0 0 C0.84675293 0.21817383 1.69350586 0.43634766 2.56591797 0.66113281 C4.33471726 1.11829336 6.10261942 1.57893838 7.86962891 2.04296875 C10.58172958 2.75504885 13.29640489 3.45653263 16.01171875 4.15625 C17.73713589 4.60356259 19.46240206 5.05145797 21.1875 5.5 C22.40457642 5.81565918 22.40457642 5.81565918 23.64624023 6.13769531 C29.32739008 7.63244504 29.32739008 7.63244504 31.5625 8.75 C31.5625 36.14 31.5625 63.53 31.5625 91.75 C30.9025 91.75 30.2425 91.75 29.5625 91.75 C29.2325 65.02 28.9025 38.29 28.5625 10.75 C14.50185703 7.17242254 14.50185703 7.17242254 0.43994141 3.59985352 C-1.31873132 3.15138645 -3.07736064 2.7027491 -4.8359375 2.25390625 C-5.75415283 2.02151245 -6.67236816 1.78911865 -7.6184082 1.54968262 C-8.49118408 1.32647339 -9.36395996 1.10326416 -10.26318359 0.87329102 C-11.02263275 0.68009781 -11.78208191 0.4869046 -12.56454468 0.28785706 C-14.4375 -0.25 -14.4375 -0.25 -16.4375 -1.25 C-16.4375 28.12 -16.4375 57.49 -16.4375 87.75 C-24.2535 81.05057143 -24.2535 81.05057143 -26.625 78.1875 C-30.24309853 73.93378956 -34.01809651 69.84345908 -37.82299805 65.75756836 C-38.8168886 64.68726319 -39.80037574 63.60722736 -40.7746582 62.51904297 C-42.45179655 60.68169015 -42.45179655 60.68169015 -44.51245117 58.90673828 C-51.57449338 52.17403901 -52.62378173 44.81938321 -52.875 35.5 C-52.90164734 34.75164886 -52.92829468 34.00329773 -52.95574951 33.23226929 C-53.05003603 26.08074196 -52.46419603 19.59582321 -47.52099609 14.10205078 C-43.85803429 10.603989 -39.83145378 7.76957313 -35.5625 5.0625 C-34.86446259 4.61539673 -34.16642517 4.16829346 -33.44723511 3.7076416 C-31.39060032 2.43133415 -29.31141365 1.22553444 -27.1953125 0.05078125 C-26.56864182 -0.30576035 -25.94197113 -0.66230194 -25.29631042 -1.02964783 C-17.12328834 -5.14561222 -8.40229921 -2.22358719 0 0 Z " fill="#006577" transform="translate(218.4375,131.25)"/>
<path d="M0 0 C0.99 0.495 0.99 0.495 2 1 C-1.69541557 4.72035349 -5.39427082 8.43724226 -9.09619141 12.15112305 C-10.3519982 13.41192215 -11.60690164 14.67362176 -12.86083984 15.9362793 C-14.67562062 17.76335142 -16.49375337 19.58703284 -18.3125 21.41015625 C-18.86180176 21.96461929 -19.41110352 22.51908234 -19.97705078 23.09034729 C-22.88918959 26.00289346 -25.86489431 28.769872 -28.99658203 31.44604492 C-32.92456826 34.84514181 -36.31783449 38.55741927 -39.7421875 42.453125 C-58.99779441 63.70024988 -77.41168937 75.88764843 -104.09179688 86.08056641 C-110.76534277 88.64944016 -117.23441682 91.64527111 -123.72079468 94.64852905 C-131.3758914 98.18769049 -138.94064131 101.49677841 -147 104 C-142.0507198 98.03983741 -136.72426654 92.54087635 -131.25 87.0625 C-130.40695313 86.20720703 -129.56390625 85.35191406 -128.6953125 84.47070312 C-120.68728803 76.44431163 -112.34887103 69.48924032 -102.5625 63.75 C-100.98228625 62.80339532 -99.40288471 61.85543371 -97.82421875 60.90625 C-97.02419434 60.42671875 -96.22416992 59.9471875 -95.39990234 59.453125 C-91.52390359 57.10623339 -87.69959857 54.67945435 -83.875 52.25 C-76.70340411 47.70348164 -69.51476712 43.18528502 -62.3125 38.6875 C-61.30364746 38.0574707 -60.29479492 37.42744141 -59.25537109 36.77832031 C-57.19717454 35.49321202 -55.13890595 34.2082191 -53.08056641 32.92333984 C-49.04740672 30.40525203 -45.01545139 27.88524025 -40.98364258 25.36499023 C-39.0057246 24.12864988 -37.02769849 22.89248252 -35.04956055 21.65649414 C-30.34353551 18.71595539 -25.63831478 15.7741515 -20.93560791 12.82830811 C-19.25021611 11.77262842 -17.56456302 10.71736592 -15.87890625 9.66210938 C-13.74824011 8.32820494 -11.61801462 6.99359634 -9.48828125 5.65820312 C-8.53566406 5.06201172 -7.58304688 4.46582031 -6.6015625 3.8515625 C-5.75932129 3.32385254 -4.91708008 2.79614258 -4.04931641 2.25244141 C-2 1 -2 1 0 0 Z " fill="#006577" transform="translate(165,180)"/>
<path d="M0 0 C2.64 0.33 5.28 0.66 8 1 C8 26.41 8 51.82 8 78 C10.97 77.01 10.97 77.01 14 76 C14 51.91 14 27.82 14 3 C20 4 20 4 22 5 C22.33 25.79 22.66 46.58 23 68 C24.485 67.01 24.485 67.01 26 66 C26.4781212 63.37706711 26.4781212 63.37706711 26.43237305 60.26513672 C26.45216721 59.06404266 26.47196136 57.86294861 26.49235535 56.62545776 C26.50194023 54.67230148 26.50194023 54.67230148 26.51171875 52.6796875 C26.52855912 51.3373143 26.54670849 49.99495694 26.56611633 48.65261841 C26.61369307 45.11811266 26.64345225 41.58367107 26.66955566 38.0489502 C26.69932289 34.44266075 26.74586623 30.83659261 26.79101562 27.23046875 C26.87713556 20.15377233 26.94444188 13.07700763 27 6 C29.64 6.66 32.28 7.32 35 8 C35 28.79 35 49.58 35 71 C31 69 31 69 29 67 C28.37339478 67.63446045 28.37339478 67.63446045 27.73413086 68.28173828 C25.80466929 70.23223303 23.87111744 72.17862542 21.9375 74.125 C21.28072266 74.79015625 20.62394531 75.4553125 19.94726562 76.140625 C16.75829823 79.3453016 13.53589887 82.51199992 10.19140625 85.5546875 C9.64814697 86.05210449 9.1048877 86.54952148 8.54516602 87.06201172 C7.78030884 87.52631592 7.78030884 87.52631592 7 88 C3.14751865 86.71583955 2.14594596 85.43121184 0 82 C-0.36709212 79.16539997 -0.50837793 76.73104918 -0.45410156 73.9050293 C-0.45468567 73.10450638 -0.45526978 72.30398346 -0.45587158 71.47920227 C-0.45309374 68.8437605 -0.42201701 66.20946195 -0.390625 63.57421875 C-0.38316152 61.74291095 -0.37746909 59.91159514 -0.37347412 58.08027649 C-0.35822621 53.26815613 -0.31895169 48.45652127 -0.2746582 43.64459229 C-0.2336873 38.73122729 -0.21545922 33.81778358 -0.1953125 28.90429688 C-0.1524566 19.26931833 -0.08421548 9.63469959 0 0 Z " fill="#006677" transform="translate(208,144)"/>
<path d="M0 0 C6.875 0.875 6.875 0.875 8 2 C8.09514592 4.70838086 8.12554932 7.39118513 8.11352539 10.09985352 C8.11367142 10.94856018 8.11381744 11.79726685 8.1139679 12.67169189 C8.11326848 15.49078891 8.10547478 18.30982071 8.09765625 21.12890625 C8.09579217 23.07803817 8.09436822 25.02717055 8.09336853 26.9763031 C8.08954255 32.11706832 8.07971159 37.25780547 8.06866455 42.39855957 C8.05845215 47.64005148 8.05387128 52.8815479 8.04882812 58.12304688 C8.03808939 68.41537694 8.02101201 78.70768614 8 89 C4.16068943 87.49169942 2.16222708 85.50275666 0 82 C-0.36709212 79.16539997 -0.50837793 76.73104918 -0.45410156 73.9050293 C-0.45468567 73.10450638 -0.45526978 72.30398346 -0.45587158 71.47920227 C-0.45309374 68.8437605 -0.42201701 66.20946195 -0.390625 63.57421875 C-0.38316152 61.74291095 -0.37746909 59.91159514 -0.37347412 58.08027649 C-0.35822621 53.26815613 -0.31895169 48.45652127 -0.2746582 43.64459229 C-0.2336873 38.73122729 -0.21545922 33.81778358 -0.1953125 28.90429688 C-0.1524566 19.26931833 -0.08421548 9.63469959 0 0 Z " fill="#006577" transform="translate(269,164)"/>
<path d="M0 0 C3.70276569 1.23425523 4.5035057 2.62245549 6.875 5.6875 C10.61257099 10.37778516 14.5202628 14.81581671 18.625 19.1875 C19.7513639 20.38926498 20.87766781 21.59108619 22.00390625 22.79296875 C22.78918701 23.63093994 22.78918701 23.63093994 23.59033203 24.48583984 C26.47683686 27.58630796 29.24735222 30.78089935 32 34 C33.45055401 35.69516774 34.90129145 37.3901779 36.35229492 39.08496094 C37.40285536 40.3126912 38.45250886 41.54119813 39.5012207 42.77050781 C43.14391131 47.03213857 46.86501211 51.21176106 50.671875 55.328125 C52 57 52 57 52 59 C49.69 59.66 47.38 60.32 45 61 C34.37628074 49.47336066 34.37628074 49.47336066 30.5 45 C27.56156045 41.60949283 24.53888018 38.30028923 21.5 35 C17.90473933 31.0954696 14.35919222 27.15774864 10.89453125 23.13671875 C9.35546873 21.40091009 7.79145526 19.70589532 6.19921875 18.01953125 C5.70292969 17.49037109 5.20664063 16.96121094 4.6953125 16.41601562 C3.71297718 15.37133001 2.72494469 14.33196331 1.73046875 13.29882812 C-1.00942838 10.37601172 -2.78876376 7.82974697 -4 4 C-2.68 2.68 -1.36 1.36 0 0 Z " fill="#006576" transform="translate(166,189)"/>
<path d="M0 0 C11.55 0 23.1 0 35 0 C35 14.52 35 29.04 35 44 C34.01 44 33.02 44 32 44 C32 30.8 32 17.6 32 4 C21.44 4 10.88 4 0 4 C0 2.68 0 1.36 0 0 Z " fill="#006577" transform="translate(146,238)"/>
<path d="M0 0 C4.62 0 9.24 0 14 0 C14 5.61 14 11.22 14 17 C9.38 17 4.76 17 0 17 C0 11.39 0 5.78 0 0 Z " fill="#006577" transform="translate(162,265)"/>
<path d="M0 0 C4.29 0 8.58 0 13 0 C13 5.61 13 11.22 13 17 C8.71 17 4.42 17 0 17 C0 11.39 0 5.78 0 0 Z " fill="#006577" transform="translate(146,265)"/>
<path d="M0 0 C4.29 0 8.58 0 13 0 C13 5.61 13 11.22 13 17 C8.71 17 4.42 17 0 17 C0 11.39 0 5.78 0 0 Z " fill="#006577" transform="translate(163,245)"/>
<path d="M0 0 C4.29 0 8.58 0 13 0 C13 5.61 13 11.22 13 17 C8.71 17 4.42 17 0 17 C0 11.39 0 5.78 0 0 Z " fill="#006577" transform="translate(146,245)"/>
<path d="M0 0 C9.24 0 18.48 0 28 0 C28 11.55 28 23.1 28 35 C27.01 35 26.02 35 25 35 C25 24.44 25 13.88 25 3 C16.75 3 8.5 3 0 3 C0 2.01 0 1.02 0 0 Z " fill="#006578" transform="translate(221,254)"/>
<path d="M0 0 C3.63 0 7.26 0 11 0 C11 4.62 11 9.24 11 14 C7.37 14 3.74 14 0 14 C0 9.38 0 4.76 0 0 Z " fill="#006677" transform="translate(234,275)"/>
<path d="M0 0 C3.63 0 7.26 0 11 0 C11 4.62 11 9.24 11 14 C7.37 14 3.74 14 0 14 C0 9.38 0 4.76 0 0 Z " fill="#006677" transform="translate(221,275)"/>
<path d="M0 0 C3.63 0 7.26 0 11 0 C11 4.29 11 8.58 11 13 C7.37 13 3.74 13 0 13 C0 8.71 0 4.42 0 0 Z " fill="#006577" transform="translate(234,260)"/>
<path d="M0 0 C3.63 0 7.26 0 11 0 C11 4.29 11 8.58 11 13 C7.37 13 3.74 13 0 13 C0 8.71 0 4.42 0 0 Z " fill="#006577" transform="translate(221,260)"/>
</svg>
